# AST/ASF file generated using VICON BodyLanguage
# -----------------------------------------------
:version 1.10
:name VICON
:units
  mass 1.0
  length 0.45
  angle deg
:documentation
   .ast/.asf automatically generated from VICON data using
   VICON BodyBuilder and BodyLanguage model FoxedUp or BRILLIANT.MOD
:root
   order TX TY TZ RX RY RZ
   axis XYZ
   position 0 0 0  
   orientation 0 0 0 
:bonedata
  begin
     id 1 
     name lhipjoint
     direction 0.535335 -0.74333 0.401095 
     length 2.04549 
     axis 0 0 0  XYZ
  end
  begin
     id 2 
     name lfemur
     direction 0.34202 -0.939693 0  
     length 6.95643  
     axis 0 0 20  XYZ
    dof rx ry rz
    limits (-160.0 20.0)
           (-70.0 70.0)
           (-60.0 70.0)
  end
  begin
     id 3 
     name ltibia
     direction 0.34192 -0.939729 0   
     length 5.55969   
     axis 0 0 20   XYZ
    dof rx
    limits (-10.0 170.0)
  end
  begin
     id 4 
     name lfoot
     direction 0.216943 -0.596046 0.773088   
     length 2.27918   
     axis -90 7.62852e-016 20   XYZ
    dof rx rz
    limits (-45.0 90.0)
           (-70.0 20.0)
  end
  begin
     id 5 
     name ltoes
     direction 1.53519e-011 -4.21748e-011 1   
     length 1.05562   
     axis -90 7.62852e-016 20   XYZ
    dof rx
    limits (-90.0 20.0)
  end
  begin
     id 6 
     name rhipjoint
     direction -0.576368 -0.719173 0.38806   
     length 2.1142  
     axis 0 0 0  XYZ 
  end
  begin
     id 7 
     name rfemur
     direction -0.34202 -0.939693 0   
     length 7.07928   
     axis 0 0 -20   XYZ
    dof rx ry rz
    limits (-160.0 20.0)
           (-70.0 70.0)
           (-70.0 60.0)
  end
  begin
     id 8 
     name rtibia
     direction -0.34202 -0.939693 0   
     length 5.79974   
     axis 0 0 -20   XYZ
    dof rx
    limits (-10.0 170.0)
 end
 begin
     id 9 
     name rfoot
     direction -0.189288 -0.520065 0.832888   
     length 2.42173  
     axis -90 -7.62852e-016 -20   XYZ
    dof rx rz
    limits (-45.0 90.0)
           (-20.0 70.0)
  end
  begin
     id 10 
     name rtoes
     direction -1.53574e-011 -4.21658e-011 1   
     length 1.14469   
     axis -90 -7.62852e-016 -20   XYZ
    dof rx
    limits (-90.0 20.0)
  end
  begin
     id 11 
     name lowerback
     direction -0.00135702 0.993803 0.111144   
     length 1.91308   
     axis 0 0 0   XYZ
    dof rx ry rz
    limits (-20.0 45.0)
           (-30.0 30.0)
           (-30.0 30.0)
  end
  begin
     id 12 
     name upperback
     direction -0.0056745 0.999813 0.0184631   
     length 1.9212   
     axis 0 0 0   XYZ
    dof rx ry rz
    limits (-20.0 45.0)
           (-30.0 30.0)
           (-30.0 30.0)
  end
  begin
     id 13 
     name thorax
     direction -0.00733434 0.999426 -0.0330788   
     length 1.94196   
     axis 0 0 0   XYZ
    dof rx ry rz
    limits (-20.0 45.0)
           (-30.0 30.0)
           (-30.0 30.0)
  end
  begin
     id 14 
     name lowerneck
     direction 0.0563074 0.996944 -0.0541571   
     length 2.34257   
     axis 0 0 0   XYZ
    dof rx ry rz
    limits (-20.0 45.0)
           (-30.0 30.0)
           (-30.0 30.0)
  end
  begin
     id 15 
     name upperneck
     direction -0.0544519 0.976166 -0.210085   
     length 2.32506   
     axis 0 0 0   XYZ
    dof rx ry rz
    limits (-20.0 45.0)
           (-30.0 30.0)
           (-30.0 30.0)
  end
  begin
     id 16
     name head
     direction -0.0226035 0.997615 -0.0652205  
     length 2.3648  
     axis 0 0 0   XYZ
    dof rx ry rz
    limits (-20.0 45.0)
           (-30.0 30.0)
           (-30.0 30.0)
  end
  begin
     id 17 
     name lclavicle
     direction 0.92109 0.381297 -0.0787716  
     length 4.0487  
     axis 0 0 0   XYZ
    dof ry rz
    limits (-20.0 10.0)
           (0.0 20.0)
  end
  begin
     id 18 
     name lhumerus
     direction 1 -4.48986e-011 3.56724e-027   
     length 4.94991   
     axis 180 -30 -90   XYZ
    dof rx ry rz
    limits (-60.0 90.0)
           (-90.0 90.0)
           (-90.0 90.0)
  end
  begin
     id 19
     name lradius
     direction 1 -4.48981e-011 8.62147e-027   
     length 2.7606   
     axis 180 -30 -90   XYZ
    dof rx
    limits (-10.0 170.0)
  end
  begin
     id 20
     name lwrist
     direction 1 -4.48989e-011 1.59799e-026   
     length 1.3803   
     axis -1.17785e-014 90 90   XYZ
    dof ry
    limits (-180.0 0.0)
 end
  begin
     id 21 
     name lhand
     direction 1 -4.48896e-011 3.19599e-026   
     length 0.843936   
     axis -2.03931e-014 90 90   XYZ
    dof rx rz
    limits (-90.0 90.0)
           (-45.0 45.0)
  end
  begin
     id 22 
     name lfingers
     direction 1 -4.48887e-011 6.39197e-026   
     length 0.680403   
     axis -4.07862e-014 90 90   XYZ
    dof rx
    limits (0.0 90.0)
  end
  begin
     id 23
     name lthumb
     direction 0.707107 -6.348e-011 0.707107   
     length 0.976926   
     axis -90 45 2.85299e-015   XYZ
    dof rx rz
    limits (-45.0 45.0)
           (-45.0 45.0)
  end
  begin
     id 24 
     name rclavicle
     direction -0.951104 0.307692 -0.026953   
     length 4.21801  
     axis 0 0 0   XYZ 
    dof ry rz
    limits (-10.0 20.0)
           (-20.0 0.0)
  end
  begin
     id 25 
     name rhumerus
     direction -1 -4.4896e-011 -1.8171e-018  
     length 4.32982   
     axis 180 30 90   XYZ
    dof rx ry rz
    limits (-90.0 60.0)
           (-90.0 90.0)
           (-90.0 90.0)
  end
  begin
     id 26 
     name rradius
     direction -1 -4.48959e-011 8.25165e-027   
     length 3.20057   
     axis 180 30 90   XYZ
    dof rx
    limits (-10.0 170.0)
  end
  begin
     id 27 
     name rwrist
     direction -1 -4.48997e-011 1.59799e-026   
     length 1.60029   
     axis -1.17785e-014 -90 -90   XYZ
    dof ry
    limits (-180.0 0.0)
  end
  begin
     id 28
     name rhand
     direction -1 -4.49023e-011 3.19599e-026   
     length 0.960433   
     axis -2.03931e-014 -90 -90   XYZ
    dof rx rz
    limits (-90.0 90.0)
           (-45.0 45.0)
  end
  begin
     id 29
     name rfingers
     direction -1 -4.48802e-011 6.39197e-026   
     length 0.774326   
     axis -4.07862e-014 -90 -90   XYZ
    dof rx
    limits (0.0 90.0)
  end
  begin
     id 30
     name rthumb
     direction -0.707107 -6.34876e-011 0.707107   
     length 1.11178   
     axis -90 -45 -2.85299e-015   XYZ
    dof rx rz
    limits (-45.0 45.0)
           (-45.0 45.0)
  end
:hierarchy
  begin
    root lhipjoint rhipjoint lowerback
    lhipjoint lfemur
    lfemur ltibia
    ltibia lfoot
    lfoot ltoes
    rhipjoint rfemur
    rfemur rtibia
    rtibia rfoot
    rfoot rtoes
    lowerback upperback
    upperback thorax
    thorax lowerneck lclavicle rclavicle
    lowerneck upperneck
    upperneck head
    lclavicle lhumerus
    lhumerus lradius
    lradius lwrist
    lwrist lhand lthumb
    lhand lfingers
    rclavicle rhumerus
    rhumerus rradius
    rradius rwrist
    rwrist rhand rthumb
    rhand rfingers
end

#!OML:ASF C:\KaitlinTest1\Natural Motions\Nikki\Session 2\Nikki.ASF
:FULLY-SPECIFIED
:DEGREES
178
root -15.0466 13.2465 4.83309 66.7216 83.9897 26.7074
lowerback 17.6562 -0.310792 -4.09101
upperback -4.43141 -1.72557 -2.73414
thorax -15.0138 -0.563741 -0.264165
lowerneck -43.6441 -30.6616 10.7559
upperneck 0.742096 -62.4663 3.54114
head 199.203 183.666 29.472
rclavicle 1.98785e-015 3.97569e-014
rhumerus -92.8042 -9.28174 -48.3141
rradius 23.7809
rwrist 4.53875
rhand -44.019 9.23727
rfingers 7.12502
rthumb -16.8395 -20.0526
lclavicle 1.98785e-015 3.97569e-014
lhumerus -107.696 12.176 25.4704
lradius 35.5743
lwrist 1.53312
lhand -34.3216 8.69246
lfingers 7.12502
lthumb -7.48995 38.5399
rfemur -90.3855 -1.53885 16.6139
rtibia 88.3783
rfoot -30.764 -7.61282
rtoes -1.43125e-014
lfemur -88.7644 1.66674 -24.9003
ltibia 82.3966
lfoot -22.7158 2.46822
ltoes -1.92424e-013
179
root -15.0207 13.2221 4.84288 67.4691 83.5932 27.5646
lowerback 18.5568 -0.304008 -4.62245
upperback -4.66073 -1.92724 -2.81122
thorax -15.8323 -0.591358 0.0103194
lowerneck -43.7941 -30.482 10.8149
upperneck 0.899452 -62.3929 3.40951
head 199.288 183.356 29.8457
rclavicle -7.55382e-015 2.78299e-015
rhumerus -91.0256 -10.1307 -50.9932
rradius 24.3493
rwrist 3.91145
rhand -43.8207 10.8501
rfingers 7.12502
rthumb -16.6486 -18.4559
lclavicle -7.55382e-015 2.78299e-015
lhumerus -106.188 14.1646 26.916
lradius 35.5974
lwrist 2.16169
lhand -35.0761 8.35637
lfingers 7.12502
lthumb -8.21822 38.1765
rfemur -90.3549 -1.39445 16.1418
rtibia 88.7632
rfoot -30.9774 -7.79091
rtoes 1.44715e-013
lfemur -88.64 1.68127 -25.2499
ltibia 82.7916
lfoot -23.0628 2.63841
ltoes 7.95139e-014
180
root -14.9822 13.2026 4.84915 65.7447 84.2191 25.3052
lowerback 18.4128 -0.491513 -3.94886
upperback -4.96717 -1.99791 -2.61551
thorax -16.1237 -0.67138 -0.129171
lowerneck -44.005 -30.2625 10.9318
upperneck 0.941579 -62.3256 3.40121
head 199.344 183.103 30.0768
rclavicle 2.54444e-014 2.66371e-014
rhumerus -88.7128 -10.824 -54.5147
rradius 24.8811
rwrist 3.89461
rhand -46.048 11.0087
rfingers 7.12502
rthumb -18.7919 -18.1035
lclavicle 2.54444e-014 2.66371e-014
lhumerus -104.306 16.3235 29.0631
lradius 36.048
lwrist 2.55547
lhand -35.1893 8.34302
lfingers 7.12502
lthumb -8.32745 38.1589
rfemur -90.7962 -1.26754 16.8121
rtibia 88.9899
rfoot -31.1662 -8.1269
rtoes 3.33958e-014
lfemur -89.2502 1.59131 -24.4479
ltibia 83.1258
lfoot -23.2401 2.7585
ltoes 1.68569e-013
181
root -14.9595 13.1808 4.84971 66.0483 84.1541 25.114
lowerback 18.5317 -0.570153 -4.06569
upperback -5.31133 -2.15072 -2.56317
thorax -16.612 -0.712775 0.0416575
lowerneck -44.2087 -30.0522 11.039
upperneck 1.06954 -62.2359 3.29602
head 199.398 182.904 30.4085
rclavicle -7.95139e-016 3.97569e-015
rhumerus -85.8528 -11.2328 -58.1333
rradius 25.5555
rwrist 2.75268
rhand -45.9597 10.7482
rfingers 7.12502
rthumb -18.7069 -18.3723
lclavicle -7.95139e-016 3.97569e-015
lhumerus -101.393 18.5129 31.8898
lradius 35.7136
lwrist 2.8072
lhand -35.4611 7.82621
lfingers 7.12502
lthumb -8.58974 37.6315
rfemur -91.3953 -1.19728 16.737
rtibia 89.1471
rfoot -31.1293 -8.2254
rtoes 8.90555e-014
lfemur -89.824 1.49475 -24.4118
ltibia 83.3296
lfoot -23.2982 2.9963
ltoes 1.24042e-013
182
root -14.9283 13.1735 4.85537 65.9778 84.3029 24.8364
lowerback 18.589 -0.684382 -4.02506
upperback -5.54719 -2.29406 -2.44293
thorax -16.9315 -0.764622 0.20173
lowerneck -44.4291 -29.9442 11.0673
upperneck 1.25136 -62.3277 3.15155
head 199.48 182.906 30.7679
rclavicle 4.13472e-014 5.24792e-014
rhumerus -82.5839 -11.2388 -61.845
rradius 26.0907
rwrist 1.76113
rhand -45.2218 12.2501
rfingers 7.12502
rthumb -17.9971 -16.9373
lclavicle 4.13472e-014 5.24792e-014
lhumerus -97.9538 20.5018 35.5546
lradius 35.8023
lwrist 2.99015
lhand -35.5937 7.64399
lfingers 7.12502
lthumb -8.71777 37.444
rfemur -91.5298 -1.15564 16.8632
rtibia 89.2122
rfoot -31.1764 -8.34616
rtoes 3.96774e-013
lfemur -90.0077 1.38542 -24.1498
ltibia 83.4627
lfoot -23.357 3.1127
ltoes 5.02528e-013
183
root -14.8856 13.1895 4.86071 65.8139 84.0685 24.6393
lowerback 18.8016 -0.726326 -4.49776
upperback -5.77957 -2.48618 -2.37216
thorax -17.3303 -0.781899 0.614207
lowerneck -44.5417 -29.688 11.236
upperneck 1.3029 -62.2624 3.12407
head 199.452 183.032 30.8383
rclavicle -3.18055e-015 2.62396e-014
rhumerus -78.8748 -10.6011 -66.4269
rradius 26.9013
rwrist -0.183346
rhand -46.1086 12.285
rfingers 7.12502
rthumb -18.8502 -16.8217
lclavicle -3.18055e-015 2.62396e-014
lhumerus -93.9227 22.1499 39.8381
lradius 36.2128
lwrist 3.78862
lhand -35.1377 7.06129
lfingers 7.12502
lthumb -8.27765 36.8791
rfemur -91.3308 -0.990216 16.6095
rtibia 89.1623
rfoot -31.2642 -8.40038
rtoes -1.69365e-013
lfemur -89.7509 1.41617 -24.2397
ltibia 83.4594
lfoot -23.5019 3.2768
ltoes -2.24229e-013
184
root -14.8369 13.2159 4.87229 63.2606 84.3698 22.3722
lowerback 19.0196 -0.768462 -4.36142
upperback -5.84879 -2.49563 -2.14699
thorax -17.547 -0.778904 0.806558
lowerneck -44.6088 -29.591 11.1942
upperneck 1.34388 -62.1929 3.07066
head 199.499 182.906 30.9893
rclavicle -2.74323e-014 -3.33958e-014
rhumerus -74.8666 -9.62682 -70.8935
rradius 27.5841
rwrist -0.939896
rhand -47.0665 11.5115
rfingers 7.12502
rthumb -19.7712 -17.503
lclavicle -2.74323e-014 -3.33958e-014
lhumerus -88.8092 23.3417 44.7893
lradius 36.2879
lwrist 4.12691
lhand -34.7016 6.787
lfingers 7.12502
lthumb -7.8568 36.621
rfemur -90.5689 -0.749059 16.9916
rtibia 89.0291
rfoot -31.4902 -8.60355
rtoes -3.59403e-013
lfemur -89.1435 1.54229 -23.7587
ltibia 83.4648
lfoot -23.7354 3.35977
ltoes -2.78299e-013
185
root -14.8133 13.2141 4.87375 64.294 84.4194 23.0861
lowerback 18.6338 -0.897483 -4.40672
upperback -6.12475 -2.65774 -2.07511
thorax -17.6358 -0.834672 0.959675
lowerneck -44.6408 -29.4905 11.2199
upperneck 1.42984 -62.2346 3.00071
head 199.51 183.055 31.0713
rclavicle -7.15625e-015 1.74931e-014
rhumerus -70.6986 -8.19299 -75.0488
rradius 28.3972
rwrist -2.70364
rhand -47.1971 12.5669
rfingers 7.12502
rthumb -19.8967 -16.4346
lclavicle -7.15625e-015 1.74931e-014
lhumerus -82.96 23.8181 50.262
lradius 36.3407
lwrist 4.55171
lhand -35.0506 6.85321
lfingers 7.12502
lthumb -8.19362 36.6743
rfemur -90.852 -0.83255 16.9911
rtibia 88.9316
rfoot -31.3976 -8.59326
rtoes -1.87653e-013
lfemur -89.4384 1.34323 -23.6912
ltibia 83.4088
lfoot -23.6326 3.5373
ltoes -1.90833e-013
186
root -14.7833 13.2325 4.88925 62.4959 84.8242 21.5875
lowerback 18.7001 -0.960236 -4.19387
upperback -6.21902 -2.66878 -1.87831
thorax -17.7927 -0.843683 1.07441
lowerneck -44.5102 -29.5152 11.0782
upperneck 1.40489 -62.3319 3.03308
head 199.571 183.035 30.9827
rclavicle 1.23246e-014 -4.77083e-015
rhumerus -66.3279 -6.25561 -79.0661
rradius 29.2015
rwrist -4.43258
rhand -47.3278 13.1219
rfingers 7.12502
rthumb -20.0224 -15.8665
lclavicle 1.23246e-014 -4.77083e-015
lhumerus -76.497 23.406 55.8022
lradius 36.8037
lwrist 6.92506
lhand -33.7007 7.16617
lfingers 7.12502
lthumb -6.89062 37.034
rfemur -90.2031 -0.77834 17.4336
rtibia 88.7718
rfoot -31.455 -8.74322
rtoes -1.66979e-014
lfemur -88.9255 1.34292 -23.2424
ltibia 83.3229
lfoot -23.6434 3.6071
ltoes 7.95139e-014
187
root -14.7428 13.2576 4.89078 63.716 84.6747 22.9639
lowerback 18.513 -0.980726 -4.31247
upperback -6.37313 -2.72806 -1.92859
thorax -17.8639 -0.856252 1.09683
lowerneck -44.3677 -29.4682 10.9532
upperneck 1.35498 -62.1919 3.04722
head 199.614 182.762 30.9504
rclavicle -9.54166e-015 1.66979e-014
rhumerus -62.0755 -4.69843 -81.9108
rradius 30.4906
rwrist -5.80492
rhand -46.7766 13.4512
rfingers 7.12502
rthumb -19.4925 -15.5917
lclavicle -9.54166e-015 1.66979e-014
lhumerus -69.669 21.9721 61.3913
lradius 36.9874
lwrist 8.80461
lhand -35.1838 6.03524
lfingers 7.12502
lthumb -8.32214 35.8513
rfemur -89.7438 -0.815563 17.2496
rtibia 88.5995
rfoot -31.521 -8.70816
rtoes -1.77316e-013
lfemur -88.425 1.28938 -23.4122
ltibia 83.1314
lfoot -23.7075 3.7193
ltoes -3.02153e-013
188
root -14.7222 13.2878 4.90561 67.1363 84.815 26.3194
lowerback 18.0246 -1.10928 -4.37199
upperback -6.56448 -2.88544 -1.88378
thorax -17.779 -0.915272 1.22072
lowerneck -44.0679 -29.4991 10.6551
upperneck 1.06415 -61.9569 3.25589
head 199.676 182.192 30.6353
rclavicle -2.46493e-014 1.27222e-014
rhumerus -57.6928 -1.71163 -85.3587
rradius 31.3941
rwrist -6.7349
rhand -48.3859 14.2184
rfingers 7.12502
rthumb -21.0392 -14.6603
lclavicle -2.46493e-014 1.27222e-014
lhumerus -62.4512 19.6704 66.728
lradius 37.3498
lwrist 12.2748
lhand -35.4723 7.3154
lfingers 7.12502
lthumb -8.60057 37.1202
rfemur -89.584 -0.987596 17.2327
rtibia 88.4026
rfoot -31.4718 -8.83717
rtoes -4.78673e-013
lfemur -88.2465 1.07717 -23.4339
ltibia 82.8399
lfoot -23.5824 3.67135
ltoes -3.05333e-013
189
root -14.7005 13.3 4.91038 68.2963 84.7688 27.4818
lowerback 17.3567 -1.16015 -4.40003
upperback -6.74964 -2.92755 -1.92364
thorax -17.5819 -0.936847 1.18418
lowerneck -43.629 -29.5494 10.4527
upperneck 0.935491 -61.9469 3.36432
head 199.699 182.078 30.2604
rclavicle 8.74653e-015 5.56597e-015
rhumerus -53.4819 1.2966 -88.2753
rradius 33.547
rwrist -9.97766
rhand -49.3917 13.4769
rfingers 7.12502
rthumb -22.0052 -15.2913
lclavicle 8.74653e-015 5.56597e-015
lhumerus -55.6578 16.7326 71.0575
lradius 37.4784
lwrist 13.5007
lhand -37.947 7.02244
lfingers 7.12502
lthumb -10.9882 36.7149
rfemur -89.4522 -1.06301 17.1306
rtibia 88.1364
rfoot -31.2705 -8.73302
rtoes -2.03555e-013
lfemur -88.0653 1.02169 -23.5829
ltibia 82.5185
lfoot -23.359 3.70881
ltoes -1.7016e-013
190
root -14.6727 13.3434 4.92392 68.3202 84.8121 28.0244
lowerback 17.1081 -1.16978 -4.48797
upperback -6.79417 -2.94438 -1.91474
thorax -17.4725 -0.935937 1.242
lowerneck -43.0742 -29.5779 10.2443
upperneck 0.773322 -61.8446 3.4887
head 199.696 181.908 29.7861
rclavicle 1.78906e-014 1.66979e-014
rhumerus -49.0279 3.74909 -89.733
rradius 34.9227
rwrist -10.5966
rhand -49.3886 13.9252
rfingers 7.12502
rthumb -22.0022 -14.8433
lclavicle 1.78906e-014 1.66979e-014
lhumerus -48.9776 13.6922 74.1639
lradius 37.5888
lwrist 15.2938
lhand -39.1898 6.28074
lfingers 7.12502
lthumb -12.1867 35.9057
rfemur -88.537 -1.02678 17.1651
rtibia 87.8074
rfoot -31.2366 -8.75528
rtoes 2.5524e-013
lfemur -87.1228 1.10773 -23.6084
ltibia 82.1276
lfoot -23.2912 3.60893
ltoes 1.95604e-013
191
root -14.6068 13.4354 4.93077 63.7954 84.7562 25.1547
lowerback 17.5474 -0.999291 -4.51216
upperback -6.45079 -2.73895 -1.93785
thorax -17.3337 -0.852472 1.17729
lowerneck -42.4736 -29.6776 9.96574
upperneck 0.572872 -61.7412 3.62635
head 199.674 181.801 29.2269
rclavicle -2.22639e-014 -1.98785e-014
rhumerus -44.5071 6.29154 -90.7551
rradius 37.0599
rwrist -12.543
rhand -49.4089 14.1963
rfingers 7.12502
rthumb -22.0217 -14.5699
lclavicle -2.22639e-014 -1.98785e-014
lhumerus -42.4911 10.4907 76.3909
lradius 38.2817
lwrist 17.5186
lhand -39.3194 6.33019
lfingers 7.12502
lthumb -12.3116 35.9477
rfemur -85.8231 -0.722292 17.2198
rtibia 87.1491
rfoot -31.4607 -8.75098
rtoes -2.8625e-014
lfemur -84.4354 1.44886 -23.4956
ltibia 81.5298
lfoot -23.5779 3.70139
ltoes -1.1609e-013
